STARTFONT 2.1
FONT Scroll-o-Sprites.pbm
SIZE 16 75 75
FONTBOUNDINGBOX 16 16 0 0
STARTPROPERTIES 3
COPYRIGHT "CC-BY-3.0"
FONT_ASCENT 0
FONT_DESCENT 0
ENDPROPERTIES
CHARS 235
STARTCHAR 1
ENCODING 1
SWIDTH 1152 0
DWIDTH 16 0
BBX 16 16 0 0
BITMAP
0000
0002
17e0
0ff0
09f0
09d0
0ff0
2eb0
0c30
0422
3818
57d4
47e4
07e0
0660
0250
ENDCHAR
STARTCHAR 2
ENCODING 2
SWIDTH 1152 0
DWIDTH 16 0
BBX 16 16 0 0
BITMAP
0000
0000
0000
0000
0018
0018
0010
0000
0078
0070
00f0
1bf8
27fc
04cc
0884
0880
ENDCHAR
STARTCHAR 3
ENCODING 3
SWIDTH 1152 0
DWIDTH 16 0
BBX 16 16 0 0
BITMAP
0000
0000
07e0
0ff0
0ff0
0990
0990
0e70
03c0
0340
1818
27e4
318c
33cc
0420
0420
ENDCHAR
STARTCHAR 4
ENCODING 4
SWIDTH 1152 0
DWIDTH 16 0
BBX 16 16 0 0
BITMAP
0000
03c0
07e0
37ec
77ee
4002
6996
2e74
03c0
3b5c
781e
07e0
318c
33cc
0420
0420
ENDCHAR
STARTCHAR 5
ENCODING 5
SWIDTH 1152 0
DWIDTH 16 0
BBX 16 16 0 0
BITMAP
0000
63f0
77e0
4ff0
4810
5188
5188
5668
53c8
5348
7810
3ff8
5ffc
47e4
47f0
4cd8
ENDCHAR
STARTCHAR 6
ENCODING 6
SWIDTH 1152 0
DWIDTH 16 0
BBX 16 16 0 0
BITMAP
0000
07e0
0ff0
1df8
1bb8
5fda
7d7e
7c3e
3c3c
1eb8
1ff8
1ff8
0ffa
03fc
0000
0000
ENDCHAR
STARTCHAR 7
ENCODING 7
SWIDTH 1152 0
DWIDTH 16 0
BBX 16 16 0 0
BITMAP
0000
2000
7000
27f0
0ff8
1c1c
180c
1ccc
1ccc
1a1c
18f8
0ff0
0784
0000
1000
0000
ENDCHAR
STARTCHAR 8
ENCODING 8
SWIDTH 1152 0
DWIDTH 16 0
BBX 16 16 0 0
BITMAP
0000
03f0
07e0
0ff0
0810
1008
1428
1008
1008
0000
3018
57d4
4fe4
0fe0
07f0
0cd8
ENDCHAR
STARTCHAR 16
ENCODING 16
SWIDTH 1152 0
DWIDTH 16 0
BBX 16 16 0 0
BITMAP
0000
0240
1248
3ffc
1248
1248
77fe
1248
1208
7f1e
1208
1248
3ffc
1248
0240
0000
ENDCHAR
STARTCHAR 17
ENCODING 17
SWIDTH 1152 0
DWIDTH 16 0
BBX 16 16 0 0
BITMAP
0000
1020
0be0
143a
12c4
7568
2c94
2ba4
25d4
2934
16ae
2348
5c28
07d0
0408
0000
ENDCHAR
STARTCHAR 18
ENCODING 18
SWIDTH 1152 0
DWIDTH 16 0
BBX 16 16 0 0
BITMAP
0000
0000
0000
0000
0000
0000
07e0
0000
55aa
7e7e
0000
0000
0000
0000
0000
0000
ENDCHAR
STARTCHAR 19
ENCODING 19
SWIDTH 1152 0
DWIDTH 16 0
BBX 16 16 0 0
BITMAP
0000
0000
0000
0000
02c0
0340
02c0
0340
02c0
0340
0000
0180
0000
0000
0000
0000
ENDCHAR
STARTCHAR 20
ENCODING 20
SWIDTH 1152 0
DWIDTH 16 0
BBX 16 16 0 0
BITMAP
0000
0000
0000
0000
0210
0630
0630
0000
0000
0420
0c60
0c60
0000
0000
0000
0000
ENDCHAR
STARTCHAR 21
ENCODING 21
SWIDTH 1152 0
DWIDTH 16 0
BBX 16 16 0 0
BITMAP
0000
3ffc
6006
4002
4212
4632
4632
4002
4002
4422
4c62
4c62
4002
6006
3ffc
0000
ENDCHAR
STARTCHAR 22
ENCODING 22
SWIDTH 1152 0
DWIDTH 16 0
BBX 16 16 0 0
BITMAP
0000
3ffc
6006
4ff2
524a
524a
5ffa
524a
524a
5ffa
524a
524a
4ff2
6006
3ffc
0000
ENDCHAR
STARTCHAR 23
ENCODING 23
SWIDTH 1152 0
DWIDTH 16 0
BBX 16 16 0 0
BITMAP
0000
3ffc
6006
4002
4002
4002
4002
4002
4002
4002
4002
4002
4ff2
6006
3ffc
0000
ENDCHAR
STARTCHAR 24
ENCODING 24
SWIDTH 1152 0
DWIDTH 16 0
BBX 16 16 0 0
BITMAP
0000
0000
0000
1ff8
1008
17e8
17e8
1668
16e8
17e8
17e8
1008
1ff8
0000
0000
0000
ENDCHAR
STARTCHAR 25
ENCODING 25
SWIDTH 1152 0
DWIDTH 16 0
BBX 16 16 0 0
BITMAP
0000
0000
0000
1ff8
1008
1008
13e8
13e8
1328
1368
13e8
1008
1ff8
0000
0000
0000
ENDCHAR
STARTCHAR 26
ENCODING 26
SWIDTH 1152 0
DWIDTH 16 0
BBX 16 16 0 0
BITMAP
0000
0000
0000
6000
6000
1000
0800
0400
1af8
310c
3ffc
3ffc
3ffc
0000
0000
0000
ENDCHAR
STARTCHAR 27
ENCODING 27
SWIDTH 1152 0
DWIDTH 16 0
BBX 16 16 0 0
BITMAP
0000
0000
0000
0006
0006
0008
0010
0020
1f58
308c
3ffc
3ffc
3ffc
0000
0000
0000
ENDCHAR
STARTCHAR 28
ENCODING 28
SWIDTH 1152 0
DWIDTH 16 0
BBX 16 16 0 0
BITMAP
0000
0000
0000
0000
0000
77ee
3dbc
0ff0
07e0
0810
1ff8
37ec
27e4
366c
324c
0240
ENDCHAR
STARTCHAR 29
ENCODING 29
SWIDTH 1152 0
DWIDTH 16 0
BBX 16 16 0 0
BITMAP
0000
0000
0000
37ec
1ff8
0bd0
1e78
3c3c
7cbe
77ee
781e
6ff6
4ff2
6ff6
6c36
0420
ENDCHAR
STARTCHAR 30
ENCODING 30
SWIDTH 1152 0
DWIDTH 16 0
BBX 16 16 0 0
BITMAP
0000
0100
0180
07e0
0ff0
0c30
1e78
3ffc
7c3e
77ee
781e
6ff6
4ff2
6ff6
6c36
0420
ENDCHAR
STARTCHAR 31
ENCODING 31
SWIDTH 1152 0
DWIDTH 16 0
BBX 16 16 0 0
BITMAP
0000
0810
13c8
1ff8
0ff0
05a0
1ff8
385c
7b1e
77ee
781e
6ff6
4ff2
6ff6
6c36
0420
ENDCHAR
STARTCHAR 32
ENCODING 32
SWIDTH 1152 0
DWIDTH 16 0
BBX 16 16 0 0
BITMAP
0000
0000
0000
0000
0000
0000
0000
0000
0000
0000
0000
0000
0000
0000
0000
0000
ENDCHAR
STARTCHAR 33
ENCODING 33
SWIDTH 1152 0
DWIDTH 16 0
BBX 16 16 0 0
BITMAP
0000
0008
0100
0078
00fc
04c4
01b4
01ac
03b8
0702
0e00
1c20
3800
7000
6000
0000
ENDCHAR
STARTCHAR 34
ENCODING 34
SWIDTH 1152 0
DWIDTH 16 0
BBX 16 16 0 0
BITMAP
0000
0010
0100
0078
00ea
04c8
0088
02f0
0204
0780
0e20
1c00
3800
7000
6000
0000
ENDCHAR
STARTCHAR 35
ENCODING 35
SWIDTH 1152 0
DWIDTH 16 0
BBX 16 16 0 0
BITMAP
0000
0000
00f8
01fc
0198
0198
00f4
013c
03a8
0700
0e00
1c00
3800
7000
6000
0000
ENDCHAR
STARTCHAR 36
ENCODING 36
SWIDTH 1152 0
DWIDTH 16 0
BBX 16 16 0 0
BITMAP
0000
0000
07e0
0810
1788
2fc4
2fc4
2fc4
27a4
2074
2224
1088
0810
07e0
0000
0000
ENDCHAR
STARTCHAR 37
ENCODING 37
SWIDTH 1152 0
DWIDTH 16 0
BBX 16 16 0 0
BITMAP
0000
03c0
07e0
0420
0660
07e0
03c0
3ffc
3ffc
03c0
3bdc
03c0
03c0
0000
03c0
0000
ENDCHAR
STARTCHAR 38
ENCODING 38
SWIDTH 1152 0
DWIDTH 16 0
BBX 16 16 0 0
BITMAP
0000
0000
0000
0f60
17f0
3ff8
3fe8
0c70
0c38
0c38
33f0
33c0
1f00
1d00
0000
0000
ENDCHAR
STARTCHAR 39
ENCODING 39
SWIDTH 1152 0
DWIDTH 16 0
BBX 16 16 0 0
BITMAP
0000
07fc
09fe
0bfe
0800
0ff8
0808
0ff8
0c18
0ff8
0808
0ff8
6c18
4ff8
3ff0
0000
ENDCHAR
STARTCHAR 40
ENCODING 40
SWIDTH 1152 0
DWIDTH 16 0
BBX 16 16 0 0
BITMAP
0000
2ff4
77fa
17fa
2000
0000
1010
1ff0
1010
1ff0
0000
2ff4
77fa
17fa
2000
0000
ENDCHAR
STARTCHAR 41
ENCODING 41
SWIDTH 1152 0
DWIDTH 16 0
BBX 16 16 0 0
BITMAP
0000
0030
00f0
03f0
0f30
1c30
1870
19f4
1ff4
1fc4
1f04
1c04
17f4
17f4
0ffc
0000
ENDCHAR
STARTCHAR 42
ENCODING 42
SWIDTH 1152 0
DWIDTH 16 0
BBX 16 16 0 0
BITMAP
0000
7ffe
4002
5ffe
5ffe
5ffe
5ffe
5ffe
7ffe
0000
7ffe
0000
2664
3ffc
7ffe
0000
ENDCHAR
STARTCHAR 43
ENCODING 43
SWIDTH 1152 0
DWIDTH 16 0
BBX 16 16 0 0
BITMAP
0000
07e0
1818
2004
4642
4012
4182
2004
581a
47e2
6006
781e
7ffe
3ffc
4ff2
0180
ENDCHAR
STARTCHAR 44
ENCODING 44
SWIDTH 1152 0
DWIDTH 16 0
BBX 16 16 0 0
BITMAP
0000
4082
2004
03e0
0410
0808
11e0
5210
124a
1188
1008
0810
07e0
2004
4102
0000
ENDCHAR
STARTCHAR 45
ENCODING 45
SWIDTH 1152 0
DWIDTH 16 0
BBX 16 16 0 0
BITMAP
0000
0008
1008
7ffc
1008
1428
1248
1088
1108
1248
1428
1008
3ffe
1008
1000
0000
ENDCHAR
STARTCHAR 46
ENCODING 46
SWIDTH 1152 0
DWIDTH 16 0
BBX 16 16 0 0
BITMAP
0000
4002
2144
0540
0540
0550
0550
6556
07f0
2630
16b0
0e30
07f0
23e4
4002
0000
ENDCHAR
STARTCHAR 47
ENCODING 47
SWIDTH 1152 0
DWIDTH 16 0
BBX 16 16 0 0
BITMAP
0000
03c0
0c70
1088
2104
2104
4106
408a
4072
4602
2604
2004
1008
0c30
03c0
0000
ENDCHAR
STARTCHAR 48
ENCODING 48
SWIDTH 1152 0
DWIDTH 16 0
BBX 16 16 0 0
BITMAP
0000
0000
07e0
0ff0
0ff0
0bd0
0ff0
0c30
0ff0
07e0
0810
1ff8
37ec
37ec
0660
0420
ENDCHAR
STARTCHAR 49
ENCODING 49
SWIDTH 1152 0
DWIDTH 16 0
BBX 16 16 0 0
BITMAP
0000
0000
07e0
0ff0
0ff0
0bd4
0ff2
0c32
8ff2
87e6
481e
5ff8
37e2
37e2
0662
1424
ENDCHAR
STARTCHAR 50
ENCODING 50
SWIDTH 1152 0
DWIDTH 16 0
BBX 16 16 0 0
BITMAP
0000
0000
07e0
0ff2
0ff2
0bd2
0ff2
0c32
0ff2
03e7
7818
6bfe
6be2
6be0
3660
0420
ENDCHAR
STARTCHAR 51
ENCODING 51
SWIDTH 1152 0
DWIDTH 16 0
BBX 16 16 0 0
BITMAP
0000
0002
07e7
0ff2
0ff2
0bd2
0ff2
0c32
0ff2
07e6
081e
1ffe
3760
3622
0762
0ff2
ENDCHAR
STARTCHAR 52
ENCODING 52
SWIDTH 1152 0
DWIDTH 16 0
BBX 16 16 0 0
BITMAP
0000
0fc0
07e0
0ff0
0810
15a8
17e8
13c8
0810
07e0
0811
1ffb
37ea
37ec
0660
0420
ENDCHAR
STARTCHAR 53
ENCODING 53
SWIDTH 1152 0
DWIDTH 16 0
BBX 16 16 0 0
BITMAP
000c
000c
07e1
0ff0
0ff2
0bd5
0ff2
0c32
0ff2
07e6
081e
1e7e
37e0
3660
0660
0c30
ENDCHAR
STARTCHAR 54
ENCODING 54
SWIDTH 1152 0
DWIDTH 16 0
BBX 16 16 0 0
BITMAP
0000
0000
07e0
0ff0
0ff2
0bd2
0ff2
0c32
0ff2
07e6
081e
1e7e
37e0
3012
07e2
0ff2
ENDCHAR
STARTCHAR 55
ENCODING 55
SWIDTH 1152 0
DWIDTH 16 0
BBX 16 16 0 0
BITMAP
0000
1db8
0ff0
0000
0ff0
1bd8
1ff8
1e78
2ff4
07e0
3bdc
1db8
366c
366c
0660
0c30
ENDCHAR
STARTCHAR 56
ENCODING 56
SWIDTH 1152 0
DWIDTH 16 0
BBX 16 16 0 0
BITMAP
0000
0000
0000
0000
0000
03c0
07e0
05a0
07e0
0660
03d0
0430
0fe0
0bc0
03c0
0240
ENDCHAR
STARTCHAR 57
ENCODING 57
SWIDTH 1152 0
DWIDTH 16 0
BBX 16 16 0 0
BITMAP
0000
0000
0000
0800
0c0e
0ffc
07f8
05e8
07f8
2718
2bb0
1c00
1fe0
1fe0
1920
1120
ENDCHAR
STARTCHAR 58
ENCODING 58
SWIDTH 1152 0
DWIDTH 16 0
BBX 16 16 0 0
BITMAP
0000
0000
07e0
0ff0
0fd0
0bf0
0e00
0cc0
3d0c
37ec
1818
0ff0
07e0
0fe0
1c60
0040
ENDCHAR
STARTCHAR 59
ENCODING 59
SWIDTH 1152 0
DWIDTH 16 0
BBX 16 16 0 0
BITMAP
0000
0000
07e0
0ff0
0ff0
0db0
0ff0
0e70
17e8
381c
7ffe
6ff6
1188
1ff8
1ff8
0c30
ENDCHAR
STARTCHAR 60
ENCODING 60
SWIDTH 1152 0
DWIDTH 16 0
BBX 16 16 0 0
BITMAP
0000
07e0
0810
1008
1008
1428
1008
1008
1008
1818
17e8
2004
4812
4812
799e
0bd0
ENDCHAR
STARTCHAR 61
ENCODING 61
SWIDTH 1152 0
DWIDTH 16 0
BBX 16 16 0 0
BITMAP
0000
0000
07e0
0ff0
1ff8
1bd8
1ff8
5e7a
37ec
03c0
0c30
1ff8
37ec
07e0
0660
0240
ENDCHAR
STARTCHAR 62
ENCODING 62
SWIDTH 1152 0
DWIDTH 16 0
BBX 16 16 0 0
BITMAP
0000
0000
07e0
0ff0
1ff0
1bd4
1ff2
5e72
b7e2
83c6
443c
4ff2
3fe2
37e2
0662
1244
ENDCHAR
STARTCHAR 63
ENCODING 63
SWIDTH 1152 0
DWIDTH 16 0
BBX 16 16 0 0
BITMAP
0000
0000
07e0
0ff2
1ffa
1bda
1ffa
5e7a
37ea
03c7
7838
6bfe
6be2
6be0
3660
0240
ENDCHAR
STARTCHAR 64
ENCODING 64
SWIDTH 1152 0
DWIDTH 16 0
BBX 16 16 0 0
BITMAP
0000
0002
07e7
0ff2
1ffa
1bda
1ffa
5e7a
37ea
03c6
0c3e
1ff8
3762
0622
0762
0ff2
ENDCHAR
STARTCHAR 65
ENCODING 65
SWIDTH 1152 0
DWIDTH 16 0
BBX 16 16 0 0
BITMAP
0000
0fc0
07e0
0ff0
0810
15a8
17e8
13c8
0810
07e0
0811
1ffb
37ea
07ec
0660
0240
ENDCHAR
STARTCHAR 66
ENCODING 66
SWIDTH 1152 0
DWIDTH 16 0
BBX 16 16 0 0
BITMAP
000c
000c
07e1
0ff0
1ffa
1bd5
1ffa
5e7a
37ea
03c6
0c3e
1e78
37e0
0660
0660
0c30
ENDCHAR
STARTCHAR 67
ENCODING 67
SWIDTH 1152 0
DWIDTH 16 0
BBX 16 16 0 0
BITMAP
0000
0000
07e0
0ff0
1ffa
1bda
1ffa
5e7a
37ea
03c6
0c3e
1e78
37e2
0012
07e2
0ff2
ENDCHAR
STARTCHAR 68
ENCODING 68
SWIDTH 1152 0
DWIDTH 16 0
BBX 16 16 0 0
BITMAP
0000
15a8
0ff0
0000
1ff8
1bd8
3ffc
3e7c
37ec
33cc
4c32
1c38
37ec
07e0
07e0
0ff0
ENDCHAR
STARTCHAR 69
ENCODING 69
SWIDTH 1152 0
DWIDTH 16 0
BBX 16 16 0 0
BITMAP
0000
0000
0000
0000
0c30
13c8
07e0
05a0
07e0
0660
03d0
0420
0bc0
03c0
03c0
07e0
ENDCHAR
STARTCHAR 70
ENCODING 70
SWIDTH 1152 0
DWIDTH 16 0
BBX 16 16 0 0
BITMAP
0000
0000
0000
0408
0618
07f8
27f8
15e8
17b8
1758
1bf0
1c00
1fe0
1fe0
1920
1120
ENDCHAR
STARTCHAR 71
ENCODING 71
SWIDTH 1152 0
DWIDTH 16 0
BBX 16 16 0 0
BITMAP
0000
0000
07e0
0ff0
1fd8
1bf8
1f3a
5e3c
3660
03cc
0c38
1ff0
37e0
07e0
0660
0240
ENDCHAR
STARTCHAR 72
ENCODING 72
SWIDTH 1152 0
DWIDTH 16 0
BBX 16 16 0 0
BITMAP
0000
0000
07e0
0ff0
1ff8
5dba
3ffc
0e70
17e8
381c
7ffe
6ff6
1188
1ff8
1ff8
0c30
ENDCHAR
STARTCHAR 73
ENCODING 73
SWIDTH 1152 0
DWIDTH 16 0
BBX 16 16 0 0
BITMAP
0000
07e0
0810
1008
2004
2424
e007
a005
4812
3c3c
13c8
2004
4812
781e
0990
05a0
ENDCHAR
STARTCHAR 74
ENCODING 74
SWIDTH 1152 0
DWIDTH 16 0
BBX 16 16 0 0
BITMAP
0000
0000
0000
07e0
0ff0
0ff0
0ff0
0990
0ff0
1668
37ec
7bdc
6bdc
45ac
46a0
4c30
ENDCHAR
STARTCHAR 75
ENCODING 75
SWIDTH 1152 0
DWIDTH 16 0
BBX 16 16 0 0
BITMAP
0000
0000
07e0
09f0
0e60
0b90
0f90
0c70
0ff0
07e0
1818
3ffc
37ec
37ec
0660
0420
ENDCHAR
STARTCHAR 76
ENCODING 76
SWIDTH 1152 0
DWIDTH 16 0
BBX 16 16 0 0
BITMAP
0002
0182
07e7
0ff0
0ff2
0992
0812
0e72
0272
7a66
6816
6bd8
6be2
6982
6a62
3422
ENDCHAR
STARTCHAR 77
ENCODING 77
SWIDTH 1152 0
DWIDTH 16 0
BBX 16 16 0 0
BITMAP
0000
03f0
07e8
0ff0
0810
1008
13c8
1668
0bd0
0420
1c38
2664
3a5c
2a54
0240
0c30
ENDCHAR
STARTCHAR 78
ENCODING 78
SWIDTH 1152 0
DWIDTH 16 0
BBX 16 16 0 0
BITMAP
6000
61f8
23fc
27e4
4ff2
4810
5008
53c8
5668
67e0
7bd0
7bd8
05ac
46ac
4760
4ff0
ENDCHAR
STARTCHAR 79
ENCODING 79
SWIDTH 1152 0
DWIDTH 16 0
BBX 16 16 0 0
BITMAP
0000
03f0
07e0
0ff0
0810
1008
13c8
1668
0bd0
0420
0bd1
1ffb
37ea
37ec
0660
0420
ENDCHAR
STARTCHAR 80
ENCODING 80
SWIDTH 1152 0
DWIDTH 16 0
BBX 16 16 0 0
BITMAP
0000
0000
07e0
0ff0
1ff8
1bd8
3ff8
3e78
37e8
33d0
4c30
1fe4
37c6
0727
07fc
03f0
ENDCHAR
STARTCHAR 81
ENCODING 81
SWIDTH 1152 0
DWIDTH 16 0
BBX 16 16 0 0
BITMAP
0000
0000
0000
0000
1860
1860
0f80
56c0
3fe2
00e4
07f4
0ff4
17f4
07f4
07f4
0bd8
ENDCHAR
STARTCHAR 82
ENCODING 82
SWIDTH 1152 0
DWIDTH 16 0
BBX 16 16 0 0
BITMAP
0000
0000
0000
1008
2424
6666
6666
766e
7ffe
7dbe
77ee
524a
4002
0000
0000
0000
ENDCHAR
STARTCHAR 83
ENCODING 83
SWIDTH 1152 0
DWIDTH 16 0
BBX 16 16 0 0
BITMAP
0000
1e40
1f90
0fe0
13f4
04f8
01fc
2ff8
1ff4
1f80
1f20
2fc8
07f0
09a8
02f8
0000
ENDCHAR
STARTCHAR 84
ENCODING 84
SWIDTH 1152 0
DWIDTH 16 0
BBX 16 16 0 0
BITMAP
0000
13c8
17e8
27e4
27e4
13c8
6996
5ffa
0db0
3bdc
4992
524a
1248
1008
0810
0810
ENDCHAR
STARTCHAR 85
ENCODING 85
SWIDTH 1152 0
DWIDTH 16 0
BBX 16 16 0 0
BITMAP
0000
0e00
1f00
1700
1040
0980
0020
03c0
0810
07e0
07e0
3dbc
7bde
581a
4812
2814
ENDCHAR
STARTCHAR 86
ENCODING 86
SWIDTH 1152 0
DWIDTH 16 0
BBX 16 16 0 0
BITMAP
0000
0000
0000
0000
03f8
07fc
07fc
0e46
6dba
6daa
2a6a
22e6
1c7e
1f7c
2380
54fc
ENDCHAR
STARTCHAR 87
ENCODING 87
SWIDTH 1152 0
DWIDTH 16 0
BBX 16 16 0 0
BITMAP
0000
0080
0f80
3800
7ffc
7ffe
1ffe
007e
01fe
07fc
0bd0
0ff0
0a50
0810
0420
03c0
ENDCHAR
STARTCHAR 88
ENCODING 88
SWIDTH 1152 0
DWIDTH 16 0
BBX 16 16 0 0
BITMAP
0000
0606
050a
07fe
03fc
236c
63fc
60f0
6e94
7f0c
3ffc
3ffc
398e
3102
2100
2100
ENDCHAR
STARTCHAR 89
ENCODING 89
SWIDTH 1152 0
DWIDTH 16 0
BBX 16 16 0 0
BITMAP
0000
0606
05fa
07fe
22f4
43fc
4f0c
5d98
5e64
3ef4
3f0c
3fdc
371c
361c
263c
262a
ENDCHAR
STARTCHAR 90
ENCODING 90
SWIDTH 1152 0
DWIDTH 16 0
BBX 16 16 0 0
BITMAP
0000
1bf6
17fa
0ffc
1ffe
1dee
1ffe
2e1c
773a
79e6
7c0e
7e1e
7ffe
7fbc
773c
372a
ENDCHAR
STARTCHAR 91
ENCODING 91
SWIDTH 1152 0
DWIDTH 16 0
BBX 16 16 0 0
BITMAP
0000
01a0
07f0
0ef8
1ff8
1f98
1b80
19d0
1c91
1e62
1f02
1ffe
0fc0
17bc
3baa
482a
ENDCHAR
STARTCHAR 92
ENCODING 92
SWIDTH 1152 0
DWIDTH 16 0
BBX 16 16 0 0
BITMAP
0000
5da4
37fc
0efc
1fd4
1f80
3b88
39e8
3c89
3e72
3f02
3ffe
3fc0
0fbc
37aa
682a
ENDCHAR
STARTCHAR 93
ENCODING 93
SWIDTH 1152 0
DWIDTH 16 0
BBX 16 16 0 0
BITMAP
0240
0780
0ec0
0ff0
1ff0
1dc0
1c30
1f00
1ff0
1fe8
3fec
2fec
2266
2220
1220
0220
ENDCHAR
STARTCHAR 94
ENCODING 94
SWIDTH 1152 0
DWIDTH 16 0
BBX 16 16 0 0
BITMAP
0000
0010
0006
0006
0ff0
1f88
3fc4
3fc4
2f84
2024
2604
2c04
2094
2004
3e04
78d2
ENDCHAR
STARTCHAR 95
ENCODING 95
SWIDTH 1152 0
DWIDTH 16 0
BBX 16 16 0 0
BITMAP
0000
2010
1020
1062
2004
61e4
63f2
67c2
67bc
737e
40f2
3dea
7eec
4f40
5732
36dc
ENDCHAR
STARTCHAR 96
ENCODING 96
SWIDTH 1152 0
DWIDTH 16 0
BBX 16 16 0 0
BITMAP
0000
07e0
1ff8
3ffc
387c
733e
74be
74be
74be
733e
787e
3ffc
3cc4
1802
62cc
6dde
ENDCHAR
STARTCHAR 97
ENCODING 97
SWIDTH 1152 0
DWIDTH 16 0
BBX 16 16 0 0
BITMAP
0000
0000
0000
0000
03f0
07e8
0ff0
0c30
0a50
0810
1428
3bdc
3c3c
6ff6
0c30
0810
ENDCHAR
STARTCHAR 98
ENCODING 98
SWIDTH 1152 0
DWIDTH 16 0
BBX 16 16 0 0
BITMAP
0000
0210
0640
04c0
01e0
07e0
0eb0
1570
1018
1458
1018
0810
342c
57ca
43e2
0010
ENDCHAR
STARTCHAR 99
ENCODING 99
SWIDTH 1152 0
DWIDTH 16 0
BBX 16 16 0 0
BITMAP
0000
0000
075c
0406
0006
0846
0006
73b4
7fb4
7fac
7fbc
7fbc
7fbc
0000
0810
1818
ENDCHAR
STARTCHAR 100
ENCODING 100
SWIDTH 1152 0
DWIDTH 16 0
BBX 16 16 0 0
BITMAP
0000
0080
0000
07e0
0ff6
0bd6
0ff2
0812
300c
4ff0
4ff0
6ff0
6ff0
0000
0410
0c38
ENDCHAR
STARTCHAR 101
ENCODING 101
SWIDTH 1152 0
DWIDTH 16 0
BBX 16 16 0 0
BITMAP
0000
07e0
07e0
07e0
0180
77ee
766e
77ee
77ee
67e6
4812
6ff6
6ff6
0ff0
0c30
1c38
ENDCHAR
STARTCHAR 102
ENCODING 102
SWIDTH 1152 0
DWIDTH 16 0
BBX 16 16 0 0
BITMAP
dfdf
dfdf
dfdf
dfdf
dfdf
0000
fdfd
fdfd
fdfd
fdfd
fdfd
fdfd
fdfd
0000
dfdf
dfdf
ENDCHAR
STARTCHAR 103
ENCODING 103
SWIDTH 1152 0
DWIDTH 16 0
BBX 16 16 0 0
BITMAP
dfdf
dfdf
dfdf
dfdf
dfdf
0000
ddfd
ddfd
ddfd
c001
dddd
dddd
dddd
0000
dfdf
dfdf
ENDCHAR
STARTCHAR 104
ENCODING 104
SWIDTH 1152 0
DWIDTH 16 0
BBX 16 16 0 0
BITMAP
dfdf
dfdf
dfdf
dfdf
dfdf
0000
fc01
fcfd
fcfd
fcfd
fcfd
fcfd
fcfd
0000
dfdf
dfdf
ENDCHAR
STARTCHAR 105
ENCODING 105
SWIDTH 1152 0
DWIDTH 16 0
BBX 16 16 0 0
BITMAP
c9bd
8199
0000
0cc0
9ccc
180c
01c0
83e1
cbe9
c3e0
01c0
1818
bcd8
3cc0
1818
c03c
ENDCHAR
STARTCHAR 106
ENCODING 106
SWIDTH 1152 0
DWIDTH 16 0
BBX 16 16 0 0
BITMAP
c9bd
8199
1c00
3e18
be3c
3e3c
1c18
87c1
cfe1
dfe0
1fec
1fee
9fe6
1fc0
0f98
c03c
ENDCHAR
STARTCHAR 107
ENCODING 107
SWIDTH 1152 0
DWIDTH 16 0
BBX 16 16 0 0
BITMAP
df3d
bfbd
7ffc
7fd8
7fc6
1f86
ef38
e07d
df7d
3fbc
7fd8
7fe3
7fe7
3fe6
1fd8
c03c
ENDCHAR
STARTCHAR 108
ENCODING 108
SWIDTH 1152 0
DWIDTH 16 0
BBX 16 16 0 0
BITMAP
ffff
8001
bffd
bffd
b00d
b00d
b3ed
b3ed
b3ed
b3ed
b3ed
b00d
bffd
bffd
8001
ffff
ENDCHAR
STARTCHAR 109
ENCODING 109
SWIDTH 1152 0
DWIDTH 16 0
BBX 16 16 0 0
BITMAP
ffff
8001
bffd
a005
a005
a2a5
a555
a2a5
a555
a2a5
a555
a2a5
a005
bffd
8001
ffff
ENDCHAR
STARTCHAR 110
ENCODING 110
SWIDTH 1152 0
DWIDTH 16 0
BBX 16 16 0 0
BITMAP
ffff
8001
bffd
9ff9
8ff1
87e1
83c1
8181
8181
8241
8421
8811
9009
a005
8001
ffff
ENDCHAR
STARTCHAR 111
ENCODING 111
SWIDTH 1152 0
DWIDTH 16 0
BBX 16 16 0 0
BITMAP
ffff
8001
bffd
b81d
bb9d
ba9d
ba9d
ba9d
ba9d
ba9d
bb9d
b81d
b81d
bffd
8001
ffff
ENDCHAR
STARTCHAR 112
ENCODING 112
SWIDTH 1152 0
DWIDTH 16 0
BBX 16 16 0 0
BITMAP
0000
7ffe
4002
4002
4002
401e
401e
401e
43de
43de
43de
7bde
7bde
7bde
7ffe
0000
ENDCHAR
STARTCHAR 113
ENCODING 113
SWIDTH 1152 0
DWIDTH 16 0
BBX 16 16 0 0
BITMAP
001e
001e
001e
03de
03de
03de
7bde
7bde
7bc2
7bc2
7802
7802
4002
4002
7ffe
0000
ENDCHAR
STARTCHAR 114
ENCODING 114
SWIDTH 1152 0
DWIDTH 16 0
BBX 16 16 0 0
BITMAP
0000
0bd0
3bdc
7bde
7bde
7bde
7bde
7bde
4ffe
3000
4bde
7bde
7bde
0000
7ffe
0000
ENDCHAR
STARTCHAR 115
ENCODING 115
SWIDTH 1152 0
DWIDTH 16 0
BBX 16 16 0 0
BITMAP
0000
000c
001e
001e
001e
000e
0016
001a
001c
001e
000e
0016
000a
0004
0002
0000
ENDCHAR
STARTCHAR 116
ENCODING 116
SWIDTH 1152 0
DWIDTH 16 0
BBX 16 16 0 0
BITMAP
0000
0840
0260
0320
0780
07e0
0d70
0ea8
1808
1818
2ff4
2004
3ffc
1ff8
2004
1ff8
ENDCHAR
STARTCHAR 117
ENCODING 117
SWIDTH 1152 0
DWIDTH 16 0
BBX 16 16 0 0
BITMAP
0000
0ff0
1008
2184
4242
c3c3
c183
c003
e007
b00d
dffb
6ff6
300c
1ff8
0ff0
0000
ENDCHAR
STARTCHAR 118
ENCODING 118
SWIDTH 1152 0
DWIDTH 16 0
BBX 16 16 0 0
BITMAP
0000
0000
07e0
0ff0
1ff8
1c38
1ff8
1818
1ff8
1ff8
1ff8
1ff8
1b78
1668
0000
0000
ENDCHAR
STARTCHAR 119
ENCODING 119
SWIDTH 1152 0
DWIDTH 16 0
BBX 16 16 0 0
BITMAP
0000
0180
7ffe
7ffe
6006
7ffe
700e
7ffe
7ffe
7ffe
0000
0180
0180
0180
0180
0000
ENDCHAR
STARTCHAR 120
ENCODING 120
SWIDTH 1152 0
DWIDTH 16 0
BBX 16 16 0 0
BITMAP
0000
0000
0000
0000
0000
07e0
0ff0
0ff0
07e0
0000
0660
0c30
0000
0000
0000
0000
ENDCHAR
STARTCHAR 121
ENCODING 121
SWIDTH 1152 0
DWIDTH 16 0
BBX 16 16 0 0
BITMAP
0000
0000
7ffe
7ffe
7ffe
7ffe
7ffe
7ffe
0000
7ffe
5d5e
5f7e
5f7e
4002
0000
0000
ENDCHAR
STARTCHAR 122
ENCODING 122
SWIDTH 1152 0
DWIDTH 16 0
BBX 16 16 0 0
BITMAP
0000
7ffe
7ffe
7ffe
4002
5402
5582
7ffe
4002
5aba
5aba
7ffe
4002
5eaa
5eaa
7ffe
ENDCHAR
STARTCHAR 123
ENCODING 123
SWIDTH 1152 0
DWIDTH 16 0
BBX 16 16 0 0
BITMAP
0000
3ffc
7ffe
7ffe
7ffe
7ffe
7ffe
7ffe
3ffc
4002
3ffc
0000
300c
300c
300c
0000
ENDCHAR
STARTCHAR 124
ENCODING 124
SWIDTH 1152 0
DWIDTH 16 0
BBX 16 16 0 0
BITMAP
0000
07e0
37ec
37ec
2004
1ff8
3ffc
3ffc
3ffc
3ffc
0000
3ffc
0000
300c
300c
0000
ENDCHAR
STARTCHAR 125
ENCODING 125
SWIDTH 1152 0
DWIDTH 16 0
BBX 16 16 0 0
BITMAP
0000
0000
ffff
ffff
ffff
ffff
ffff
ffff
0000
5555
aaaa
5555
aaaa
5555
0000
0000
ENDCHAR
STARTCHAR 126
ENCODING 126
SWIDTH 1152 0
DWIDTH 16 0
BBX 16 16 0 0
BITMAP
0ff0
0ff0
0ff0
0ff0
0ff0
0ff0
0ff0
0ff0
0ff0
0ff0
0ff0
0ff0
0ff0
0ff0
0ff0
0ff0
ENDCHAR
STARTCHAR 127
ENCODING 127
SWIDTH 1152 0
DWIDTH 16 0
BBX 16 16 0 0
BITMAP
0ff0
0ff0
0ff0
0ff0
0ff0
0ff0
0ff0
0ff0
0000
0550
0aa0
0550
0aa0
0550
0000
0000
ENDCHAR
STARTCHAR 128
ENCODING 128
SWIDTH 1152 0
DWIDTH 16 0
BBX 16 16 0 0
BITMAP
0000
0000
0fff
0fff
0fff
0fff
0fff
0fff
0ff0
0ff5
0ff2
0ff5
0ff2
0ff5
0ff0
0ff0
ENDCHAR
STARTCHAR 129
ENCODING 129
SWIDTH 1152 0
DWIDTH 16 0
BBX 16 16 0 0
BITMAP
0000
0000
fff0
fff0
fff0
fff0
fff0
fff0
0ff0
4ff0
aff0
4ff0
aff0
4ff0
0ff0
0ff0
ENDCHAR
STARTCHAR 130
ENCODING 130
SWIDTH 1152 0
DWIDTH 16 0
BBX 16 16 0 0
BITMAP
0ff0
0ff0
0fff
0fff
0fff
0fff
0fff
0fff
0000
0555
0aaa
0555
0aaa
0555
0000
0000
ENDCHAR
STARTCHAR 131
ENCODING 131
SWIDTH 1152 0
DWIDTH 16 0
BBX 16 16 0 0
BITMAP
0ff0
0ff0
fff0
fff0
fff0
fff0
fff0
fff0
0000
5550
aaa0
5550
aaa0
5550
0000
0000
ENDCHAR
STARTCHAR 132
ENCODING 132
SWIDTH 1152 0
DWIDTH 16 0
BBX 16 16 0 0
BITMAP
0ff0
0ff0
0fff
0fff
0fff
0fff
0fff
0fff
0ff0
0ff5
0ff2
0ff5
0ff2
0ff5
0ff0
0ff0
ENDCHAR
STARTCHAR 133
ENCODING 133
SWIDTH 1152 0
DWIDTH 16 0
BBX 16 16 0 0
BITMAP
0ff0
0ff0
fff0
fff0
fff0
fff0
fff0
fff0
0ff0
4ff0
aff0
4ff0
aff0
4ff0
0ff0
0ff0
ENDCHAR
STARTCHAR 134
ENCODING 134
SWIDTH 1152 0
DWIDTH 16 0
BBX 16 16 0 0
BITMAP
0000
0000
ffff
ffff
ffff
ffff
ffff
ffff
0ff0
4ff5
aff2
4ff5
aff2
4ff5
0ff0
0ff0
ENDCHAR
STARTCHAR 135
ENCODING 135
SWIDTH 1152 0
DWIDTH 16 0
BBX 16 16 0 0
BITMAP
0ff0
0ff0
ffff
ffff
ffff
ffff
ffff
ffff
0000
5555
aaaa
5555
aaaa
5555
0000
0000
ENDCHAR
STARTCHAR 136
ENCODING 136
SWIDTH 1152 0
DWIDTH 16 0
BBX 16 16 0 0
BITMAP
0ff0
0ff0
ffff
ffff
ffff
ffff
ffff
ffff
0ff0
4ff5
aff2
4ff5
aff2
4ff5
0ff0
0ff0
ENDCHAR
STARTCHAR 137
ENCODING 137
SWIDTH 1152 0
DWIDTH 16 0
BBX 16 16 0 0
BITMAP
0000
0000
0000
0000
0000
0000
0200
02a0
0880
0000
0000
0000
0000
0000
0000
0000
ENDCHAR
STARTCHAR 138
ENCODING 138
SWIDTH 1152 0
DWIDTH 16 0
BBX 16 16 0 0
BITMAP
0000
0000
0000
0000
0000
00c0
02e0
0060
0800
0320
0300
0000
0000
0000
0000
0000
ENDCHAR
STARTCHAR 139
ENCODING 139
SWIDTH 1152 0
DWIDTH 16 0
BBX 16 16 0 0
BITMAP
0000
0000
0000
0000
0000
0180
05a0
0660
0240
0180
0000
0000
0000
0000
0000
0000
ENDCHAR
STARTCHAR 140
ENCODING 140
SWIDTH 1152 0
DWIDTH 16 0
BBX 16 16 0 0
BITMAP
0000
03c0
0ff0
1ff8
3ffc
3ffc
7ffe
7ffe
7c3e
3a5c
0db0
0180
0180
0180
03c0
0000
ENDCHAR
STARTCHAR 141
ENCODING 141
SWIDTH 1152 0
DWIDTH 16 0
BBX 16 16 0 0
BITMAP
0000
0180
03c0
07e0
0000
07e0
0ff0
1ff8
0000
0ff0
1ff8
3ffc
0000
0180
0180
0000
ENDCHAR
STARTCHAR 142
ENCODING 142
SWIDTH 1152 0
DWIDTH 16 0
BBX 16 16 0 0
BITMAP
0000
0000
0a50
0420
1c38
0420
0240
7a5e
27e4
03c0
0180
0180
0180
0180
03c0
0000
ENDCHAR
STARTCHAR 143
ENCODING 143
SWIDTH 1152 0
DWIDTH 16 0
BBX 16 16 0 0
BITMAP
0000
0000
0ccc
3330
0000
0000
0000
0ccc
3330
0000
0000
0000
0ccc
3330
0000
0000
ENDCHAR
STARTCHAR 144
ENCODING 144
SWIDTH 1152 0
DWIDTH 16 0
BBX 16 16 0 0
BITMAP
0000
07e0
0ff0
0ff8
1ff8
1e00
1df8
1bfc
03fc
1bfe
3dfe
7efe
7ef2
7eec
7e1e
0000
ENDCHAR
STARTCHAR 145
ENCODING 145
SWIDTH 1152 0
DWIDTH 16 0
BBX 16 16 0 0
BITMAP
0000
0000
0000
03c0
07e0
0ff0
0ff0
1ff8
1e78
1c38
1c38
1c38
1db8
03c0
07e0
0000
ENDCHAR
STARTCHAR 146
ENCODING 146
SWIDTH 1152 0
DWIDTH 16 0
BBX 16 16 0 0
BITMAP
0000
0000
0000
0190
0250
05b0
0bd0
17e8
2ff4
1ff8
1248
1248
1db8
03c0
07e0
0000
ENDCHAR
STARTCHAR 147
ENCODING 147
SWIDTH 1152 0
DWIDTH 16 0
BBX 16 16 0 0
BITMAP
0000
0000
0000
2db4
3ffc
3ffc
0000
1ff8
17e8
1668
1c38
1c38
1db8
03c0
07e0
0000
ENDCHAR
STARTCHAR 148
ENCODING 148
SWIDTH 1152 0
DWIDTH 16 0
BBX 16 16 0 0
BITMAP
0000
0000
0000
7ffe
0002
0802
0802
0002
7ffe
0f1e
0eee
0f1e
0150
0110
00e0
0000
ENDCHAR
STARTCHAR 149
ENCODING 149
SWIDTH 1152 0
DWIDTH 16 0
BBX 16 16 0 0
BITMAP
0000
0280
0180
0380
0780
37a0
6790
4708
4606
440c
611c
7ef8
7ff0
3fe0
0000
0000
ENDCHAR
STARTCHAR 150
ENCODING 150
SWIDTH 1152 0
DWIDTH 16 0
BBX 16 16 0 0
BITMAP
0000
0040
0068
04f0
00f0
01f8
1398
0738
0478
02f0
07e0
0c00
1800
3000
6000
0000
ENDCHAR
STARTCHAR 151
ENCODING 151
SWIDTH 1152 0
DWIDTH 16 0
BBX 16 16 0 0
BITMAP
0000
03c0
0240
05a0
0c30
2ff4
07e0
0000
67e6
07e0
07e0
2bd4
0c30
07e0
0000
0000
ENDCHAR
STARTCHAR 152
ENCODING 152
SWIDTH 1152 0
DWIDTH 16 0
BBX 16 16 0 0
BITMAP
0000
0018
0014
0012
003e
0070
00e0
09c0
1d80
3c00
7f00
7f80
7f00
7e00
7c00
0000
ENDCHAR
STARTCHAR 153
ENCODING 153
SWIDTH 1152 0
DWIDTH 16 0
BBX 16 16 0 0
BITMAP
0000
0f80
01ec
007c
0038
001c
00cc
01c6
0386
0702
0e02
1c02
3800
7000
6000
0000
ENDCHAR
STARTCHAR 154
ENCODING 154
SWIDTH 1152 0
DWIDTH 16 0
BBX 16 16 0 0
BITMAP
0000
00f0
0108
4108
2108
2090
20f0
20c0
22f0
2400
2490
2508
1908
0108
00f0
0000
ENDCHAR
STARTCHAR 155
ENCODING 155
SWIDTH 1152 0
DWIDTH 16 0
BBX 16 16 0 0
BITMAP
0000
0030
0048
0188
0048
0f88
1e44
3f20
3f20
2e20
2020
2020
1040
0f80
0000
0000
ENDCHAR
STARTCHAR 156
ENCODING 156
SWIDTH 1152 0
DWIDTH 16 0
BBX 16 16 0 0
BITMAP
0000
0000
0000
0000
3fd8
7fbc
73bc
0800
7bbc
73bc
7fbc
7fbc
7fbc
0000
0000
0000
ENDCHAR
STARTCHAR 157
ENCODING 157
SWIDTH 1152 0
DWIDTH 16 0
BBX 16 16 0 0
BITMAP
0000
0000
075c
0406
0406
0406
0406
73bc
7fbc
7fbc
7fbc
7fbc
7fbc
0000
0000
0000
ENDCHAR
STARTCHAR 158
ENCODING 158
SWIDTH 1152 0
DWIDTH 16 0
BBX 16 16 0 0
BITMAP
0000
07e0
0810
0990
1818
37ec
781e
7ffe
3ffc
5ffa
47e2
2814
3dbc
1ff8
07e0
0000
ENDCHAR
STARTCHAR 159
ENCODING 159
SWIDTH 1152 0
DWIDTH 16 0
BBX 16 16 0 0
BITMAP
0000
0000
0000
0380
0170
24f0
7006
0606
168e
401e
709e
79ec
39f0
1bf8
03e0
0000
ENDCHAR
STARTCHAR 160
ENCODING 160
SWIDTH 1152 0
DWIDTH 16 0
BBX 16 16 0 0
BITMAP
0000
0000
0000
0000
1c00
3e00
2200
23fc
23fc
221c
3e14
1c00
0000
0000
0000
0000
ENDCHAR
STARTCHAR 161
ENCODING 161
SWIDTH 1152 0
DWIDTH 16 0
BBX 16 16 0 0
BITMAP
0000
0000
0000
0000
0600
0900
3900
4ffc
4ffc
391c
0914
0600
0000
0000
0000
0000
ENDCHAR
STARTCHAR 162
ENCODING 162
SWIDTH 1152 0
DWIDTH 16 0
BBX 16 16 0 0
BITMAP
0000
0000
0000
0000
07c0
0c60
08e0
07c0
0820
1af0
3af8
39f8
3ff8
3ff0
1fc0
0000
ENDCHAR
STARTCHAR 163
ENCODING 163
SWIDTH 1152 0
DWIDTH 16 0
BBX 16 16 0 0
BITMAP
0000
0000
0f80
1fc0
1f80
0f7c
10fe
0efe
007c
0082
007c
3e82
7f7c
7f00
3e00
0000
ENDCHAR
STARTCHAR 164
ENCODING 164
SWIDTH 1152 0
DWIDTH 16 0
BBX 16 16 0 0
BITMAP
0000
0000
0000
07e0
0fd0
1fe8
1f68
1dc8
19c8
1f88
1648
0810
07e0
0000
0000
0000
ENDCHAR
STARTCHAR 165
ENCODING 165
SWIDTH 1152 0
DWIDTH 16 0
BBX 16 16 0 0
BITMAP
0000
0000
0000
01f8
02f8
05e8
0bc8
1788
1708
1610
1020
1040
1f80
0000
0000
0000
ENDCHAR
STARTCHAR 166
ENCODING 166
SWIDTH 1152 0
DWIDTH 16 0
BBX 16 16 0 0
BITMAP
0000
0000
0000
07e0
0b90
17c8
17c8
17c8
17c8
1388
1008
0810
07e0
0000
0000
0000
ENDCHAR
STARTCHAR 167
ENCODING 167
SWIDTH 1152 0
DWIDTH 16 0
BBX 16 16 0 0
BITMAP
0000
0000
01f0
03f8
0198
0198
02f0
0380
1818
0660
0180
0660
381c
300c
0000
0000
ENDCHAR
STARTCHAR 168
ENCODING 168
SWIDTH 1152 0
DWIDTH 16 0
BBX 16 16 0 0
BITMAP
0000
0000
0000
0000
0000
000c
300c
3ff8
1ffc
300c
3000
0000
0000
0000
0000
0000
ENDCHAR
STARTCHAR 169
ENCODING 169
SWIDTH 1152 0
DWIDTH 16 0
BBX 16 16 0 0
BITMAP
0000
0000
0f80
1fc0
3fe0
3e60
3d60
3dd0
3c38
3ff8
3ff8
1ff8
07f0
0000
0000
0000
ENDCHAR
STARTCHAR 170
ENCODING 170
SWIDTH 1152 0
DWIDTH 16 0
BBX 16 16 0 0
BITMAP
0000
0000
0000
1f80
31f0
3088
38c8
1ff8
22a8
3800
3d50
3ff8
1ff8
0000
0000
0000
ENDCHAR
STARTCHAR 171
ENCODING 171
SWIDTH 1152 0
DWIDTH 16 0
BBX 16 16 0 0
BITMAP
0000
0018
001e
001e
0030
0060
03c0
0f60
3b00
5e40
7e40
6c80
7880
3100
1e00
0000
ENDCHAR
STARTCHAR 172
ENCODING 172
SWIDTH 1152 0
DWIDTH 16 0
BBX 16 16 0 0
BITMAP
0000
3c00
4300
40c0
4030
4008
4704
4482
4382
4002
6006
7ffe
7ffe
3ffc
1ff8
0000
ENDCHAR
STARTCHAR 173
ENCODING 173
SWIDTH 1152 0
DWIDTH 16 0
BBX 16 16 0 0
BITMAP
0000
0002
0074
00f8
001c
038c
07cc
00e8
1c60
3e60
4740
4300
1300
2200
4c00
0000
ENDCHAR
STARTCHAR 174
ENCODING 174
SWIDTH 1152 0
DWIDTH 16 0
BBX 16 16 0 0
BITMAP
0000
0000
0000
0018
066c
0df6
0bf0
17e0
3fe0
3fe0
7dc0
7fc0
47b0
6760
3c00
0000
ENDCHAR
STARTCHAR 175
ENCODING 175
SWIDTH 1152 0
DWIDTH 16 0
BBX 16 16 0 0
BITMAP
0000
0000
03c0
0ff0
18f8
1678
367c
3074
38e8
3ffc
1fb8
1fc8
0ff4
0344
0008
0000
ENDCHAR
STARTCHAR 176
ENCODING 176
SWIDTH 1152 0
DWIDTH 16 0
BBX 16 16 0 0
BITMAP
0000
03c0
0360
07e0
0ff8
1efc
2fde
7dfe
5fe2
4fc2
269c
1320
0840
0480
0300
0000
ENDCHAR
STARTCHAR 177
ENCODING 177
SWIDTH 1152 0
DWIDTH 16 0
BBX 16 16 0 0
BITMAP
0000
0000
03c0
07e0
0ff0
03f0
1d38
1ef8
1ef8
1f78
1f78
1ff8
0ff0
07e0
0000
0000
ENDCHAR
STARTCHAR 178
ENCODING 178
SWIDTH 1152 0
DWIDTH 16 0
BBX 16 16 0 0
BITMAP
0000
0000
0000
0700
0ec0
1ff0
3ffc
363c
3e3c
3e38
27f8
27fc
3fcc
0000
0000
0000
ENDCHAR
STARTCHAR 179
ENCODING 179
SWIDTH 1152 0
DWIDTH 16 0
BBX 16 16 0 0
BITMAP
0000
0000
0600
0700
0300
0df0
1e78
1818
1ff8
1ff8
1ff8
0ff0
0ff0
07e0
0000
0000
ENDCHAR
STARTCHAR 180
ENCODING 180
SWIDTH 1152 0
DWIDTH 16 0
BBX 16 16 0 0
BITMAP
0000
00c0
0180
0180
0c30
3bdc
77ee
77ee
77ee
77ee
77ee
37ec
07e0
03c0
0000
0000
ENDCHAR
STARTCHAR 181
ENCODING 181
SWIDTH 1152 0
DWIDTH 16 0
BBX 16 16 0 0
BITMAP
0000
0238
1b70
3968
3c0c
3ffc
2fbc
3fec
1ff8
0ef0
03c0
0180
0340
02a0
0080
0000
ENDCHAR
STARTCHAR 182
ENCODING 182
SWIDTH 1152 0
DWIDTH 16 0
BBX 16 16 0 0
BITMAP
0000
0000
0002
00ec
03d8
07b8
0f78
0ef0
1ff0
1fe0
3fc0
3f00
7c00
0000
0000
0000
ENDCHAR
STARTCHAR 183
ENCODING 183
SWIDTH 1152 0
DWIDTH 16 0
BBX 16 16 0 0
BITMAP
0000
01c0
03e0
1bec
1c1c
0c18
03e0
01c0
0000
0100
3100
3a00
1a00
0400
0400
0000
ENDCHAR
STARTCHAR 184
ENCODING 184
SWIDTH 1152 0
DWIDTH 16 0
BBX 16 16 0 0
BITMAP
0000
0000
0000
07f0
1ff8
3ff8
3818
3198
1bb0
0380
0380
0780
0780
0300
0000
0000
ENDCHAR
STARTCHAR 185
ENCODING 185
SWIDTH 1152 0
DWIDTH 16 0
BBX 16 16 0 0
BITMAP
0000
0030
0038
01bc
03dc
07e0
0ff0
1fd0
1790
1310
0020
7040
7880
3b00
1800
0000
ENDCHAR
STARTCHAR 186
ENCODING 186
SWIDTH 1152 0
DWIDTH 16 0
BBX 16 16 0 0
BITMAP
0000
0040
0180
03c0
0ff0
1da8
367c
3fec
1db8
2ff4
1008
1d48
1d48
0d50
07e0
0000
ENDCHAR
STARTCHAR 187
ENCODING 187
SWIDTH 1152 0
DWIDTH 16 0
BBX 16 16 0 0
BITMAP
0000
4000
07f0
0ff8
1ffa
1ff8
1ffc
0ff6
118a
1c4a
1d4a
1d4c
1d48
6c10
37e0
0000
ENDCHAR
STARTCHAR 188
ENCODING 188
SWIDTH 1152 0
DWIDTH 16 0
BBX 16 16 0 0
BITMAP
0000
0000
0000
07e0
0c30
0c30
1ff8
37ec
381c
3ffc
3ffc
1ff8
2ff4
1008
0ff0
0000
ENDCHAR
STARTCHAR 189
ENCODING 189
SWIDTH 1152 0
DWIDTH 16 0
BBX 16 16 0 0
BITMAP
0000
03c0
0660
07e0
3bdc
7c3e
4ff2
4ff2
6ff6
3ffc
1ff8
0ff0
03c0
0420
03c0
0000
ENDCHAR
STARTCHAR 190
ENCODING 190
SWIDTH 1152 0
DWIDTH 16 0
BBX 16 16 0 0
BITMAP
0000
0000
0000
0000
03c0
0660
07e0
03c0
0420
0e10
0e10
0e10
0e10
0420
03c0
0000
ENDCHAR
STARTCHAR 191
ENCODING 191
SWIDTH 1152 0
DWIDTH 16 0
BBX 16 16 0 0
BITMAP
0000
0000
03c0
0660
07e0
03c0
0420
0e10
1c08
3c04
3804
3804
3004
1818
07e0
0000
ENDCHAR
STARTCHAR 192
ENCODING 192
SWIDTH 1152 0
DWIDTH 16 0
BBX 16 16 0 0
BITMAP
0000
03c0
0660
07e0
1bd8
2004
3804
3e04
3f04
3f04
3f04
3f04
1f18
0660
0180
0000
ENDCHAR
STARTCHAR 193
ENCODING 193
SWIDTH 1152 0
DWIDTH 16 0
BBX 16 16 0 0
BITMAP
0000
0000
0000
0018
0318
03a0
00c0
0360
07b0
0eb0
1d00
1a00
1c00
0000
0000
0000
ENDCHAR
STARTCHAR 194
ENCODING 194
SWIDTH 1152 0
DWIDTH 16 0
BBX 16 16 0 0
BITMAP
0000
001e
003e
007a
00f2
01e4
03c8
0790
3720
3640
1b80
0c00
1700
6300
6000
0000
ENDCHAR
STARTCHAR 195
ENCODING 195
SWIDTH 1152 0
DWIDTH 16 0
BBX 16 16 0 0
BITMAP
0000
0000
0010
0028
0044
0086
008e
029c
06b8
0cf0
18e0
30c0
6000
6000
0000
0000
ENDCHAR
STARTCHAR 196
ENCODING 196
SWIDTH 1152 0
DWIDTH 16 0
BBX 16 16 0 0
BITMAP
0000
01fe
01fa
00f2
0062
0022
0092
01ca
0386
0700
0e00
1c00
3800
7000
6000
0000
ENDCHAR
STARTCHAR 197
ENCODING 197
SWIDTH 1152 0
DWIDTH 16 0
BBX 16 16 0 0
BITMAP
0000
0006
000e
001c
0038
0030
0080
01c0
0380
0300
0800
1c00
3800
7000
6000
0000
ENDCHAR
STARTCHAR 198
ENCODING 198
SWIDTH 1152 0
DWIDTH 16 0
BBX 16 16 0 0
BITMAP
0000
0000
00f8
01fc
01fc
03e4
03c4
078c
0738
0fe0
0f80
1e00
3800
3000
0000
0000
ENDCHAR
STARTCHAR 199
ENCODING 199
SWIDTH 1152 0
DWIDTH 16 0
BBX 16 16 0 0
BITMAP
0000
00c0
012c
021c
0408
041c
023e
017e
00fc
0678
0e30
1c00
3800
7000
6000
0000
ENDCHAR
STARTCHAR 200
ENCODING 200
SWIDTH 1152 0
DWIDTH 16 0
BBX 16 16 0 0
BITMAP
0000
0000
0ff0
1ff8
3fe4
3fc4
3e04
3d84
3d84
3c04
3804
3004
1008
0ff0
0000
0000
ENDCHAR
STARTCHAR 201
ENCODING 201
SWIDTH 1152 0
DWIDTH 16 0
BBX 16 16 0 0
BITMAP
0000
300c
3c3c
3fe4
3f04
3f04
3f04
3d84
3d84
3e04
3f04
3f04
3f04
1f18
07e0
0000
ENDCHAR
STARTCHAR 202
ENCODING 202
SWIDTH 1152 0
DWIDTH 16 0
BBX 16 16 0 0
BITMAP
0000
6006
7f82
03c8
21d0
10a0
0858
04bc
011c
020c
0484
0844
0024
0016
0006
0000
ENDCHAR
STARTCHAR 203
ENCODING 203
SWIDTH 1152 0
DWIDTH 16 0
BBX 16 16 0 0
BITMAP
0000
0036
0012
0048
0096
0122
0248
0490
1920
3640
6e80
1d00
0b00
0600
0400
0000
ENDCHAR
STARTCHAR 204
ENCODING 204
SWIDTH 1152 0
DWIDTH 16 0
BBX 16 16 0 0
BITMAP
0000
0000
0000
07e0
0ff0
1ff8
1ff8
1ff8
0180
1188
1008
1818
0c30
0000
0000
0000
ENDCHAR
STARTCHAR 205
ENCODING 205
SWIDTH 1152 0
DWIDTH 16 0
BBX 16 16 0 0
BITMAP
0000
0000
0000
0ff0
1ff8
1ff8
1ff8
1ff8
1008
1008
1e78
1e78
3c3c
0000
0000
0000
ENDCHAR
STARTCHAR 206
ENCODING 206
SWIDTH 1152 0
DWIDTH 16 0
BBX 16 16 0 0
BITMAP
0000
0000
0000
0018
0074
00f4
01f0
03f0
07f0
0ff0
0780
7878
0786
0000
0000
0000
ENDCHAR
STARTCHAR 207
ENCODING 207
SWIDTH 1152 0
DWIDTH 16 0
BBX 16 16 0 0
BITMAP
0000
0028
002a
002a
14be
54fe
5442
7d3c
7f7e
427e
3c42
7e3c
7e00
4200
3c00
0000
ENDCHAR
STARTCHAR 208
ENCODING 208
SWIDTH 1152 0
DWIDTH 16 0
BBX 16 16 0 0
BITMAP
0000
0000
002c
0076
006e
2c76
766e
6e76
7642
6e42
763c
4200
4200
3c00
0000
0000
ENDCHAR
STARTCHAR 209
ENCODING 209
SWIDTH 1152 0
DWIDTH 16 0
BBX 16 16 0 0
BITMAP
0000
0000
0000
3e7c
3e7c
0000
1e78
1e78
0660
3a5c
7e7e
7e7e
7c3e
0000
0000
0000
ENDCHAR
STARTCHAR 210
ENCODING 210
SWIDTH 1152 0
DWIDTH 16 0
BBX 16 16 0 0
BITMAP
0000
0000
3dbc
0000
2ff4
2ff4
1ff8
3c3c
3c3c
3c3c
3c3c
3c3c
0000
0000
0000
0000
ENDCHAR
STARTCHAR 211
ENCODING 211
SWIDTH 1152 0
DWIDTH 16 0
BBX 16 16 0 0
BITMAP
0000
0000
0000
0000
0000
3ffc
4002
7bde
7a5e
7b5e
3a5c
03c0
0000
0000
0000
0000
ENDCHAR
STARTCHAR 212
ENCODING 212
SWIDTH 1152 0
DWIDTH 16 0
BBX 16 16 0 0
BITMAP
0000
0000
0000
0c30
1bd8
381c
7c3e
7e7e
7e7e
0e70
07e0
0810
1e78
1c38
0000
0000
ENDCHAR
STARTCHAR 213
ENCODING 213
SWIDTH 1152 0
DWIDTH 16 0
BBX 16 16 0 0
BITMAP
0000
0000
0000
3c3c
3dbc
3c3c
1c38
0e70
1188
1ff8
1ff8
0000
0ff0
0000
0000
0000
ENDCHAR
STARTCHAR 214
ENCODING 214
SWIDTH 1152 0
DWIDTH 16 0
BBX 16 16 0 0
BITMAP
0000
0000
03c0
0420
3c3c
3a5c
3dbc
3e7c
3ffc
1e78
0180
1ff8
0ff0
0000
0000
0000
ENDCHAR
STARTCHAR 215
ENCODING 215
SWIDTH 1152 0
DWIDTH 16 0
BBX 16 16 0 0
BITMAP
0000
03f0
07e0
0ff0
0810
1008
1008
1008
0810
0420
1db8
3c3c
3c3c
381c
300c
0000
ENDCHAR
STARTCHAR 216
ENCODING 216
SWIDTH 1152 0
DWIDTH 16 0
BBX 16 16 0 0
BITMAP
0000
0000
0000
0ee0
1ef0
1ef8
1d8c
0304
1e04
1c04
1c04
0c08
0610
03e0
0000
0000
ENDCHAR
STARTCHAR 217
ENCODING 217
SWIDTH 1152 0
DWIDTH 16 0
BBX 16 16 0 0
BITMAP
0000
0000
1818
27e4
2004
2004
300c
1bd8
0720
0f90
0f90
0f90
0b10
0420
03c0
0000
ENDCHAR
STARTCHAR 218
ENCODING 218
SWIDTH 1152 0
DWIDTH 16 0
BBX 16 16 0 0
BITMAP
0000
0000
0000
0000
0000
0000
2184
33cc
2a54
1ff8
0000
0000
0000
0000
0000
0000
ENDCHAR
STARTCHAR 219
ENCODING 219
SWIDTH 1152 0
DWIDTH 16 0
BBX 16 16 0 0
BITMAP
0000
0000
0000
0000
0000
0000
3ffe
78e2
48e2
08a2
071c
0000
0000
0000
0000
0000
ENDCHAR
STARTCHAR 220
ENCODING 220
SWIDTH 1152 0
DWIDTH 16 0
BBX 16 16 0 0
BITMAP
0000
0000
07e0
1818
300c
63a6
6666
6666
6666
6666
63bc
3000
1818
07e0
0000
0000
ENDCHAR
STARTCHAR 221
ENCODING 221
SWIDTH 1152 0
DWIDTH 16 0
BBX 16 16 0 0
BITMAP
0000
0000
0180
03c0
07e0
0ff0
1ff8
3ffc
03c0
03c0
03c0
03c0
03c0
03c0
0000
0000
ENDCHAR
STARTCHAR 222
ENCODING 222
SWIDTH 1152 0
DWIDTH 16 0
BBX 16 16 0 0
BITMAP
0000
0000
0000
0ff8
07f8
03f8
01f8
03f8
07f8
0fb8
1f18
3e08
1c00
0800
0000
0000
ENDCHAR
STARTCHAR 223
ENCODING 223
SWIDTH 1152 0
DWIDTH 16 0
BBX 16 16 0 0
BITMAP
0000
0000
0000
03c0
03c0
03c0
1ff8
1ff8
1ff8
1ff8
03c0
03c0
03c0
0000
0000
0000
ENDCHAR
STARTCHAR 224
ENCODING 224
SWIDTH 1152 0
DWIDTH 16 0
BBX 16 16 0 0
BITMAP
0000
0000
0000
1818
1c38
0e70
07e0
03c0
03c0
07e0
0e70
1c38
1818
0000
0000
0000
ENDCHAR
STARTCHAR 225
ENCODING 225
SWIDTH 1152 0
DWIDTH 16 0
BBX 16 16 0 0
BITMAP
0000
0000
0000
1e78
3ffc
3ffc
3ffc
3ffc
1ff8
0ff0
07e0
03c0
0180
0000
0000
0000
ENDCHAR
STARTCHAR 226
ENCODING 226
SWIDTH 1152 0
DWIDTH 16 0
BBX 16 16 0 0
BITMAP
0000
0180
0180
03c0
03c0
7ffe
3ffc
1ff8
0ff0
1ff8
1ff8
3e7c
381c
6006
0000
0000
ENDCHAR
STARTCHAR 227
ENCODING 227
SWIDTH 1152 0
DWIDTH 16 0
BBX 16 16 0 0
BITMAP
0000
0180
300c
27e4
0ff0
1ff8
1ff8
5ffa
5ffa
1ff8
1ff8
0ff0
27e4
300c
0180
0000
ENDCHAR
STARTCHAR 228
ENCODING 228
SWIDTH 1152 0
DWIDTH 16 0
BBX 16 16 0 0
BITMAP
0000
0000
0f80
1fe0
03f0
01f0
00f8
00f8
00f8
00f8
01f0
03f0
1fe0
0f80
0000
0000
ENDCHAR
STARTCHAR 229
ENCODING 229
SWIDTH 1152 0
DWIDTH 16 0
BBX 16 16 0 0
BITMAP
0000
03c0
0ff0
1ff8
3c3c
381c
718e
73ce
73ce
718e
381c
3c3c
1ff8
0ff0
03c0
0000
ENDCHAR
STARTCHAR 230
ENCODING 230
SWIDTH 1152 0
DWIDTH 16 0
BBX 16 16 0 0
BITMAP
0000
0180
03c0
03c0
07e0
0660
0e70
0e70
1e78
1e78
3ffc
3e7c
7e7e
7ffe
0000
0000
ENDCHAR
STARTCHAR 231
ENCODING 231
SWIDTH 1152 0
DWIDTH 16 0
BBX 16 16 0 0
BITMAP
0000
0018
0078
01f8
07f8
07c8
0708
0408
0468
0478
3478
3c30
3c00
1800
0000
0000
ENDCHAR
STARTCHAR 232
ENCODING 232
SWIDTH 1152 0
DWIDTH 16 0
BBX 16 16 0 0
BITMAP
0000
0100
1190
33d8
33fc
27fc
0ffe
3ffe
7cde
7236
680e
7006
3004
1818
07e0
0000
ENDCHAR
STARTCHAR 233
ENCODING 233
SWIDTH 1152 0
DWIDTH 16 0
BBX 16 16 0 0
BITMAP
0000
0000
1060
5460
3800
5408
102a
001c
002a
0008
0100
0540
0380
0540
0100
0000
ENDCHAR
STARTCHAR 234
ENCODING 234
SWIDTH 1152 0
DWIDTH 16 0
BBX 16 16 0 0
BITMAP
0000
0180
0240
0240
0720
0720
0f90
0f90
1f88
1f88
1708
1008
1008
0810
07e0
0000
ENDCHAR
STARTCHAR 235
ENCODING 235
SWIDTH 1152 0
DWIDTH 16 0
BBX 16 16 0 0
BITMAP
0000
0000
03f8
03f0
07e0
07c0
0f80
0ff8
1ff0
01e0
01c0
0380
0300
0600
0400
0000
ENDCHAR
STARTCHAR 236
ENCODING 236
SWIDTH 1152 0
DWIDTH 16 0
BBX 16 16 0 0
BITMAP
0000
03c0
0ff0
1ff8
3c3c
381c
718e
724e
72ce
731e
31fc
38f8
1c00
0e00
03a0
0000
ENDCHAR
STARTCHAR 237
ENCODING 237
SWIDTH 1152 0
DWIDTH 16 0
BBX 16 16 0 0
BITMAP
0000
00f8
01fc
03fe
03fe
02fa
0202
3904
7cf8
7400
4400
38c0
01e0
0120
00c0
0000
ENDCHAR
STARTCHAR 238
ENCODING 238
SWIDTH 1152 0
DWIDTH 16 0
BBX 16 16 0 0
BITMAP
0000
01fe
01fe
001c
0038
7c70
08e0
11fe
21fe
7c00
0000
03c0
0080
0100
03c0
0000
ENDCHAR
STARTCHAR 239
ENCODING 239
SWIDTH 1152 0
DWIDTH 16 0
BBX 16 16 0 0
BITMAP
0000
07e0
0ff0
1ff8
1ff8
1998
1188
1188
0e70
03c0
0b50
0810
0db0
07e0
03c0
0000
ENDCHAR
STARTCHAR 240
ENCODING 240
SWIDTH 1152 0
DWIDTH 16 0
BBX 16 16 0 0
BITMAP
0000
700e
781e
7c3e
3e7c
1cf8
09f0
03e0
07c0
0f90
3f3c
3e7c
1c38
2c34
4002
0000
ENDCHAR
STARTCHAR 241
ENCODING 241
SWIDTH 1152 0
DWIDTH 16 0
BBX 16 16 0 0
BITMAP
0000
1ff8
2004
2f04
2f04
2f04
2f04
2f04
2f04
2f04
1708
0b10
0520
0240
0180
0000
ENDCHAR
STARTCHAR 242
ENCODING 242
SWIDTH 1152 0
DWIDTH 16 0
BBX 16 16 0 0
BITMAP
0000
1ff8
1ff8
0810
0810
0810
0420
0240
0240
0420
0990
0bd0
0ff0
1ff8
1ff8
0000
ENDCHAR
ENDFONT
